<mxfile host="app.diagrams.net" modified="2022-11-12T03:20:21.285Z" agent="5.0 (Macintosh; Intel Mac OS X 10_15_7) AppleWebKit/537.36 (KHTML, like Gecko) Chrome/102.0.5005.136 Safari/537.36" etag="oAAVIx4K_j7hcB7wIBYV" version="20.5.1" type="github">
  <diagram id="RDxtAEYc82JOTdeBVOuG" name="第 1 页">
    <mxGraphModel dx="940" dy="606" grid="1" gridSize="10" guides="1" tooltips="1" connect="1" arrows="1" fold="1" page="1" pageScale="1" pageWidth="827" pageHeight="1169" math="0" shadow="0">
      <root>
        <mxCell id="0" />
        <mxCell id="1" parent="0" />
        <mxCell id="ig-MDQd1oEQlbwAzON0g-7" value="" style="html=1;align=center;verticalAlign=top;rounded=1;absoluteArcSize=1;arcSize=20;dashed=1;fontSize=18;" parent="1" vertex="1">
          <mxGeometry x="170" y="60" width="510" height="260" as="geometry" />
        </mxCell>
        <mxCell id="ig-MDQd1oEQlbwAzON0g-1" value="&lt;h3&gt;&lt;span style=&quot;font-weight: normal;&quot;&gt;&lt;font color=&quot;#3399ff&quot;&gt;&lt;font style=&quot;font-size: 18px;&quot;&gt;m5.2xlarge，&lt;br&gt;&lt;/font&gt;&lt;font style=&quot;font-size: 18px;&quot;&gt;8v32G，&lt;br&gt;&lt;/font&gt;&lt;font style=&quot;font-size: 18px;&quot;&gt;¥1032.95&lt;/font&gt;&lt;/font&gt;&lt;/span&gt;&lt;/h3&gt;" style="sketch=0;points=[[0,0,0],[0.25,0,0],[0.5,0,0],[0.75,0,0],[1,0,0],[0,1,0],[0.25,1,0],[0.5,1,0],[0.75,1,0],[1,1,0],[0,0.25,0],[0,0.5,0],[0,0.75,0],[1,0.25,0],[1,0.5,0],[1,0.75,0]];outlineConnect=0;fontColor=#232F3E;gradientColor=#F78E04;gradientDirection=north;fillColor=#D05C17;strokeColor=#ffffff;dashed=0;verticalLabelPosition=bottom;verticalAlign=top;align=left;html=1;fontSize=12;fontStyle=0;aspect=fixed;shape=mxgraph.aws4.resourceIcon;resIcon=mxgraph.aws4.ec2;" parent="1" vertex="1">
          <mxGeometry x="200" y="120" width="78" height="78" as="geometry" />
        </mxCell>
        <mxCell id="ig-MDQd1oEQlbwAzON0g-4" value="&lt;h2&gt;&lt;span style=&quot;font-weight: normal;&quot;&gt;&lt;font color=&quot;#3399ff&quot;&gt;m6g.4xlarge，&lt;br&gt;16v64G，&lt;br&gt;¥1638.19&lt;/font&gt;&lt;/span&gt;&lt;/h2&gt;" style="sketch=0;points=[[0,0,0],[0.25,0,0],[0.5,0,0],[0.75,0,0],[1,0,0],[0,1,0],[0.25,1,0],[0.5,1,0],[0.75,1,0],[1,1,0],[0,0.25,0],[0,0.5,0],[0,0.75,0],[1,0.25,0],[1,0.5,0],[1,0.75,0]];outlineConnect=0;fontColor=#232F3E;gradientColor=#F78E04;gradientDirection=north;fillColor=#D05C17;strokeColor=#ffffff;dashed=0;verticalLabelPosition=bottom;verticalAlign=top;align=left;html=1;fontSize=12;fontStyle=0;aspect=fixed;shape=mxgraph.aws4.resourceIcon;resIcon=mxgraph.aws4.ec2;" parent="1" vertex="1">
          <mxGeometry x="550" y="120" width="78" height="78" as="geometry" />
        </mxCell>
        <mxCell id="ig-MDQd1oEQlbwAzON0g-5" value="" style="shape=flexArrow;endArrow=classic;html=1;rounded=0;fontSize=18;endWidth=44;endSize=6.67;" parent="1" edge="1">
          <mxGeometry width="50" height="50" relative="1" as="geometry">
            <mxPoint x="320" y="200" as="sourcePoint" />
            <mxPoint x="520" y="200" as="targetPoint" />
            <Array as="points" />
          </mxGeometry>
        </mxCell>
        <mxCell id="ig-MDQd1oEQlbwAzON0g-6" value="upgrade" style="edgeLabel;html=1;align=center;verticalAlign=middle;resizable=0;points=[];fontSize=18;" parent="ig-MDQd1oEQlbwAzON0g-5" vertex="1" connectable="0">
          <mxGeometry x="-0.22" relative="1" as="geometry">
            <mxPoint as="offset" />
          </mxGeometry>
        </mxCell>
        <mxCell id="qxt4uBPG3cYCySN-xC67-1" value="EKS节点" style="text;html=1;strokeColor=none;fillColor=none;align=center;verticalAlign=middle;whiteSpace=wrap;rounded=0;fontSize=18;" vertex="1" parent="1">
          <mxGeometry x="190" y="60" width="80" height="30" as="geometry" />
        </mxCell>
        <mxCell id="qxt4uBPG3cYCySN-xC67-2" value="" style="html=1;align=center;verticalAlign=top;rounded=1;absoluteArcSize=1;arcSize=20;dashed=1;fontSize=18;" vertex="1" parent="1">
          <mxGeometry x="170" y="390" width="510" height="260" as="geometry" />
        </mxCell>
        <mxCell id="qxt4uBPG3cYCySN-xC67-3" value="RDS" style="text;html=1;strokeColor=none;fillColor=none;align=center;verticalAlign=middle;whiteSpace=wrap;rounded=0;fontSize=18;" vertex="1" parent="1">
          <mxGeometry x="190" y="400" width="80" height="30" as="geometry" />
        </mxCell>
        <mxCell id="qxt4uBPG3cYCySN-xC67-4" value="&lt;h2&gt;&lt;span style=&quot;font-weight: normal;&quot;&gt;&lt;font color=&quot;#3399ff&quot;&gt;Multiple AZ&lt;br&gt;&lt;/font&gt;&lt;font color=&quot;#3399ff&quot;&gt;db.r6g.xlarge&lt;br&gt;&lt;/font&gt;&lt;font color=&quot;#3399ff&quot;&gt;4v32G&lt;br&gt;&lt;/font&gt;&lt;font color=&quot;#3399ff&quot;&gt;¥2248.97&lt;/font&gt;&lt;/span&gt;&lt;/h2&gt;" style="sketch=0;outlineConnect=0;fontColor=#232F3E;gradientColor=none;fillColor=#2E27AD;strokeColor=none;dashed=0;verticalLabelPosition=bottom;verticalAlign=top;align=center;html=1;fontSize=12;fontStyle=0;aspect=fixed;pointerEvents=1;shape=mxgraph.aws4.rds_multi_az_db_cluster;" vertex="1" parent="1">
          <mxGeometry x="560" y="440" width="78" height="78" as="geometry" />
        </mxCell>
        <mxCell id="qxt4uBPG3cYCySN-xC67-5" value="&lt;h2&gt;&lt;span style=&quot;font-weight: normal;&quot;&gt;&lt;font color=&quot;#3399ff&quot;&gt;Single AZ&lt;br&gt;&lt;/font&gt;&lt;font color=&quot;#3399ff&quot;&gt;db.m5.large&lt;br&gt;&lt;/font&gt;&lt;font color=&quot;#3399ff&quot;&gt;2v8G&lt;br&gt;&lt;/font&gt;&lt;font color=&quot;#3399ff&quot;&gt;¥427.63/m&lt;/font&gt;&lt;/span&gt;&lt;/h2&gt;" style="sketch=0;outlineConnect=0;fontColor=#232F3E;gradientColor=none;fillColor=#2E27AD;strokeColor=none;dashed=0;verticalLabelPosition=bottom;verticalAlign=top;align=center;html=1;fontSize=12;fontStyle=0;aspect=fixed;pointerEvents=1;shape=mxgraph.aws4.rds_instance_alt;" vertex="1" parent="1">
          <mxGeometry x="200" y="440" width="78" height="78" as="geometry" />
        </mxCell>
        <mxCell id="qxt4uBPG3cYCySN-xC67-6" value="" style="shape=flexArrow;endArrow=classic;html=1;rounded=0;fontSize=18;endWidth=44;endSize=6.67;" edge="1" parent="1">
          <mxGeometry width="50" height="50" relative="1" as="geometry">
            <mxPoint x="310" y="478.5" as="sourcePoint" />
            <mxPoint x="510" y="478.5" as="targetPoint" />
            <Array as="points" />
          </mxGeometry>
        </mxCell>
        <mxCell id="qxt4uBPG3cYCySN-xC67-7" value="upgrade" style="edgeLabel;html=1;align=center;verticalAlign=middle;resizable=0;points=[];fontSize=18;" vertex="1" connectable="0" parent="qxt4uBPG3cYCySN-xC67-6">
          <mxGeometry x="-0.22" relative="1" as="geometry">
            <mxPoint as="offset" />
          </mxGeometry>
        </mxCell>
      </root>
    </mxGraphModel>
  </diagram>
</mxfile>
